<svg width="725" height="619" viewBox="0 0 725 619" fill="none" xmlns="http://www.w3.org/2000/svg">
<path d="M432.695 471.627C436.561 471.627 439.695 468.493 439.695 464.628C439.695 460.763 436.561 457.63 432.695 457.63C428.829 457.63 425.695 460.763 425.695 464.628C425.695 468.493 428.829 471.627 432.695 471.627Z" fill="#333F4F"/>
<path d="M420.172 499.008C424.037 499.008 427.171 495.875 427.171 492.01C427.171 488.145 424.037 485.012 420.172 485.012C416.306 485.012 413.172 488.145 413.172 492.01C413.172 495.875 416.306 499.008 420.172 499.008Z" fill="#333F4F"/>
<path d="M295.287 503.965C299.152 503.965 302.286 500.831 302.286 496.966C302.286 493.101 299.152 489.968 295.287 489.968C291.421 489.968 288.287 493.101 288.287 496.966C288.287 500.831 291.421 503.965 295.287 503.965Z" fill="#333F4F"/>
<path d="M267.385 468.243C271.25 468.243 274.384 465.11 274.384 461.245C274.384 457.38 271.25 454.246 267.385 454.246C263.519 454.246 260.385 457.38 260.385 461.245C260.385 465.11 263.519 468.243 267.385 468.243Z" fill="#333F4F"/>
<path d="M355.131 341.037H346.365V395.793H355.131V341.037Z" fill="#333F4F"/>
<path opacity="0.1" d="M355.131 386.932H346.365V395.801H355.131V386.932Z" fill="#333F4F"/>
<path d="M344.673 449.767H356.823V389.011H344.673V449.767Z" fill="#333F4F"/>
<path d="M268.905 449.372L348.452 446.115V458.89H256.136C257.057 456.202 258.77 453.855 261.048 452.156C263.327 450.458 266.065 449.488 268.905 449.372Z" fill="#333F4F"/>
<path d="M428.006 449.372L348.452 446.115V458.89H440.776C439.854 456.202 438.142 453.855 435.863 452.156C433.585 450.458 430.846 449.488 428.006 449.372Z" fill="#333F4F"/>
<path d="M356.831 447.42L420.336 478.722C423.024 480.051 425.287 482.107 426.868 484.655C428.448 487.204 429.284 490.144 429.281 493.143V494.09L355.109 461.759L344.673 461.014L282.994 500.387C282.602 497.478 283.014 494.517 284.185 491.825C285.355 489.134 287.241 486.813 289.636 485.116L344.673 446.153L356.831 447.42Z" fill="#333F4F"/>
<path opacity="0.1" d="M346.372 341.037V346.94C347.898 346.999 349.461 347.029 351.061 347.029C352.44 347.029 353.797 347.029 355.131 346.962V341.037H346.372Z" fill="#333F4F"/>
<path d="M351.061 344.95C368.925 344.95 383.406 340.715 383.406 335.492C383.406 330.269 368.925 326.034 351.061 326.034C333.197 326.034 318.716 330.269 318.716 335.492C318.716 340.715 333.197 344.95 351.061 344.95Z" fill="#333F4F"/>
<path d="M319 335.484C319.03 336.011 319.168 336.525 319.405 336.995C319.642 337.466 319.974 337.883 320.379 338.22C320.699 338.529 321.043 338.813 321.407 339.069C326.223 342.513 337.807 344.942 351.337 344.942C364.867 344.942 376.548 342.49 381.341 339.017C381.58 338.852 381.809 338.673 382.027 338.481C382.504 338.134 382.899 337.687 383.186 337.173C383.473 336.658 383.645 336.087 383.689 335.499C383.689 330.282 369.213 326.042 351.337 326.042C333.461 326.042 319 330.26 319 335.484Z" fill="#333F4F"/>
<path opacity="0.1" d="M319 335.484C319.03 336.011 319.168 336.525 319.405 336.995C319.642 337.466 319.974 337.883 320.379 338.22C320.699 338.529 321.043 338.813 321.407 339.069C326.223 342.513 337.807 344.942 351.337 344.942C364.867 344.942 376.548 342.49 381.341 339.017C381.58 338.852 381.809 338.673 382.027 338.481C382.504 338.134 382.899 337.687 383.186 337.173C383.473 336.658 383.645 336.087 383.689 335.499C383.689 330.282 369.213 326.042 351.337 326.042C333.461 326.042 319 330.26 319 335.484Z" fill="#333F4F"/>
<path opacity="0.1" d="M318.724 335.484C318.753 336.011 318.891 336.525 319.128 336.996C319.366 337.466 319.697 337.883 320.103 338.22C324.225 337.199 327.073 336.342 327.073 336.342C327.073 336.342 355.579 337.937 381.751 338.481C382.228 338.134 382.624 337.688 382.911 337.173C383.198 336.658 383.369 336.087 383.414 335.499C383.414 330.282 368.937 326.042 351.061 326.042C333.185 326.042 318.724 330.26 318.724 335.484Z" fill="#333F4F"/>
<path opacity="0.1" d="M296.36 315.943C299.866 320.983 304.54 325.098 309.983 327.938C315.427 330.778 321.477 332.257 327.617 332.25H378.397C384.247 332.254 390.001 330.757 395.107 327.902C400.213 325.047 404.5 320.929 407.559 315.943H296.36Z" fill="#333F4F"/>
<path opacity="0.1" d="M319 335.484C319.03 336.011 319.168 336.525 319.405 336.995C319.642 337.466 319.974 337.883 320.379 338.22C320.699 338.529 321.043 338.813 321.407 339.069C341.367 340.282 361.383 340.264 381.341 339.017C381.58 338.852 381.809 338.673 382.027 338.481C382.504 338.134 382.899 337.687 383.186 337.173C383.473 336.658 383.645 336.087 383.689 335.499C383.689 330.282 369.213 326.042 351.337 326.042C333.461 326.042 319 330.26 319 335.484Z" fill="#333F4F"/>
<path d="M289.927 334.62C330.71 339.77 371.979 339.77 412.762 334.62C413.894 334.625 415.015 334.406 416.063 333.977C417.11 333.547 418.062 332.915 418.864 332.116C419.666 331.318 420.302 330.369 420.736 329.324C421.171 328.279 421.394 327.158 421.394 326.027C421.394 323.748 420.489 321.562 418.877 319.95C417.265 318.339 415.079 317.434 412.799 317.434H289.927C287.648 317.434 285.461 318.339 283.849 319.95C282.238 321.562 281.332 323.748 281.332 326.027C281.332 328.306 282.238 330.492 283.849 332.103C285.461 333.715 287.648 334.62 289.927 334.62Z" fill="#333F4F"/>
<path d="M403.138 428.213C403.138 428.213 411.614 436.889 417.398 437.716C423.183 438.543 427.939 457.138 419.881 458.584C411.822 460.03 396.317 454.246 394.044 451.765C391.77 449.283 383.503 434.623 383.503 434.623L403.138 428.213Z" fill="#65617D"/>
<path d="M356.428 335.641C356.428 335.641 377.1 375.104 377.51 380.478C377.92 385.851 395.49 408.62 395.49 408.62L373.581 436.27C373.581 436.27 370.689 429.242 365.732 426.76C360.774 424.278 361.803 418.704 361.803 418.704C361.803 418.704 356.637 418.704 352.917 412.503C349.198 406.302 344.65 400.109 344.65 397.44C344.65 394.772 317.367 366.652 317.367 366.652L319.432 336.692L325.015 327.189L356.428 335.641Z" fill="#3F3D56"/>
<path opacity="0.1" d="M410.168 337.914L410.347 338.071C412.851 340.307 440.962 365.214 440.962 365.803C440.962 366.392 451.085 383.161 438.48 397.627C425.874 412.093 396.936 435.853 396.936 435.853C396.936 435.853 384.331 444.945 382.676 446.808C381.021 448.672 356.018 446.808 370.898 429.86C385.777 412.913 399.828 393.908 399.828 393.908C399.828 393.908 375.027 387.945 373.38 383.787C371.733 379.628 406.031 327.994 406.031 327.994L410.168 337.914Z" fill="black"/>
<path d="M410.995 337.914L411.174 338.071C413.679 340.307 441.789 365.214 441.789 365.803C441.789 366.392 451.913 383.161 439.307 397.627C426.702 412.093 397.763 435.853 397.763 435.853C397.763 435.853 385.158 444.945 383.503 446.808C381.848 448.672 356.838 446.808 371.725 429.86C386.611 412.913 400.656 393.908 400.656 393.908C400.656 393.908 375.855 387.945 374.2 383.787C372.545 379.628 339.909 329.023 339.909 329.023L406.873 327.994L410.995 337.914Z" fill="#3F3D56"/>
<path d="M339.484 226.769L341.959 249.292C341.959 249.292 367.379 259.42 368.005 259.212C368.631 259.003 384.949 244.306 382.266 234.617C380.916 229.75 380.298 222.998 380.029 217.475C379.761 211.953 379.798 207.749 379.798 207.749C379.798 207.749 342.802 194.52 346.111 203.613C347.312 206.915 346.767 210.872 345.59 214.569C344.11 218.89 342.057 222.994 339.484 226.769Z" fill="#FBBEBE"/>
<path opacity="0.1" d="M345.575 214.554C345.798 214.815 346.029 215.061 346.261 215.299C350.569 219.864 356.449 222.624 362.714 223.023C368.979 223.421 375.162 221.428 380.014 217.446C379.731 211.975 379.783 207.72 379.783 207.72C379.783 207.72 342.787 194.491 346.097 203.583C347.297 206.9 346.753 210.857 345.575 214.554Z" fill="black"/>
<path d="M339.484 197.464C339.486 202.366 340.941 207.158 343.666 211.233C346.391 215.309 350.263 218.485 354.793 220.36C359.323 222.235 364.308 222.725 369.117 221.769C373.926 220.812 378.343 218.451 381.81 214.985C385.277 211.519 387.638 207.103 388.595 202.295C389.552 197.487 389.061 192.503 387.186 187.974C385.31 183.445 382.133 179.574 378.057 176.849C373.981 174.125 369.189 172.67 364.285 172.669C361.023 172.648 357.788 173.275 354.77 174.514C351.752 175.752 349.009 177.578 346.702 179.885C344.395 182.191 342.569 184.933 341.33 187.951C340.091 190.969 339.464 194.202 339.484 197.464Z" fill="#FBBEBE"/>
<path opacity="0.1" d="M370.07 250.127C370.07 250.127 379.761 228.603 383.093 228.603C386.425 228.603 391.576 339.941 391.576 339.941L340.945 340.731L338.873 282.278L349.198 230.496C349.198 230.496 358.493 250.924 370.07 250.127Z" fill="black"/>
<path opacity="0.1" d="M370.07 251.781C370.07 251.781 379.761 230.257 383.093 230.257C386.425 230.257 391.576 341.588 391.576 341.588L334.125 342.46L338.873 283.933L349.212 232.113C349.212 232.113 358.493 252.579 370.07 251.781Z" fill="black"/>
<path d="M370.07 250.954C370.07 250.954 379.761 229.43 383.093 229.43C386.425 229.43 391.576 340.798 391.576 340.798L334.125 341.67L338.873 283.143L349.212 231.323C349.212 231.323 358.493 251.751 370.07 250.954Z" fill="#65617D"/>
<path opacity="0.1" d="M379.492 222.67C379.492 222.67 381.229 220.129 383.712 220.956C386.194 221.783 388.05 219.51 390.533 221.783C393.015 224.056 402.929 227.157 404.793 226.121C406.657 225.085 413.261 229.639 414.715 232.322C416.168 235.005 420.91 242.241 420.91 242.241C420.91 242.241 425.047 247.198 424.428 249.888C423.809 252.579 425.874 255.671 428.349 256.909C430.824 258.146 435.804 270.547 435.804 270.547C435.804 270.547 434.454 287.138 440.03 290.022C445.606 292.906 441.476 305.524 441.476 305.524L415.117 299.271L407.663 282.323C407.663 282.323 410.555 331.922 414.066 336.461C417.577 341 417.995 343.914 417.995 343.914C417.995 343.914 404.353 346.805 401.461 349.28C398.568 351.754 390.92 348.661 390.92 348.661L383.466 282.748C383.466 282.748 380.782 270.346 380.782 263.944C380.782 257.542 379.492 222.67 379.492 222.67Z" fill="black"/>
<path d="M380.32 222.67C380.32 222.67 382.057 220.129 384.539 220.956C387.021 221.783 388.878 219.51 391.36 221.783C393.842 224.056 403.757 227.157 405.62 226.121C407.484 225.085 414.089 229.639 415.535 232.322C416.981 235.005 421.737 242.241 421.737 242.241C421.737 242.241 425.874 247.198 425.255 249.888C424.637 252.579 426.702 255.671 429.176 256.909C431.651 258.146 436.631 270.547 436.631 270.547C436.631 270.547 435.297 287.13 440.88 290.022C442.274 290.767 443.064 292.355 443.459 294.367C445.062 302.461 438.42 309.869 430.168 309.616L416.004 303.743L408.55 282.323C408.55 282.323 411.442 331.922 414.953 336.461C418.464 341 418.882 343.914 418.882 343.914C418.882 343.914 405.24 346.805 402.348 349.28C399.455 351.754 391.807 348.661 391.807 348.661L384.353 282.748C384.353 282.748 381.669 270.346 381.669 263.944C381.669 257.542 380.32 222.67 380.32 222.67Z" fill="#024F79"/>
<path opacity="0.1" d="M425.867 258.563C425.867 258.563 423.384 265.383 416.564 264.764C409.743 264.145 425.867 258.563 425.867 258.563Z" fill="black"/>
<path opacity="0.1" d="M419.262 248.233C419.262 248.233 414.715 249.061 413.06 252.981C411.405 256.901 419.262 248.233 419.262 248.233Z" fill="black"/>
<path opacity="0.1" d="M406.485 241.205C406.485 242.033 403.585 256.499 406.485 262.491C409.385 268.483 408.96 275.511 408.96 275.511L406.485 241.205Z" fill="black"/>
<path opacity="0.1" d="M345.44 217.692C345.44 217.692 343.823 215.791 342.168 216C340.513 216.208 339.484 217.237 337.412 218.064C335.34 218.891 330.39 219.1 330.39 219.719C330.39 220.337 326.044 222.819 323.152 223.445C320.259 224.071 311.165 230.265 308.891 242.249C306.617 254.233 302.689 257.743 302.689 257.743L324.598 268.505C324.598 268.505 307.654 340.411 305.589 345.576C303.524 350.741 303.352 381.35 303.352 381.35C303.352 381.35 316.77 387.312 320.296 389.197C323.822 391.083 322.361 371.43 329.6 360.064C336.838 348.698 345.097 332.168 345.097 332.168L357.666 296.826C357.666 296.826 365.731 249.717 358.911 241.034C352.09 232.351 344.822 220.807 345.44 217.692Z" fill="black"/>
<path d="M344.613 217.692C344.613 217.692 342.995 215.791 341.34 216C339.686 216.208 338.657 217.237 336.584 218.064C334.512 218.891 329.562 219.1 329.562 219.719C329.562 220.337 325.224 222.819 322.324 223.445C319.424 224.071 310.322 230.257 308.086 242.241C305.85 254.226 301.891 257.736 301.891 257.736L323.74 268.505C323.74 268.505 306.796 340.411 304.732 345.576C302.667 350.741 302.495 381.35 302.495 381.35C302.495 381.35 315.913 387.312 319.439 389.197C322.965 391.083 321.504 371.355 328.735 360.019C335.966 348.684 344.233 332.123 344.233 332.123L356.838 296.826C356.838 296.826 364.904 249.717 358.083 241.034C351.262 232.351 343.994 220.807 344.613 217.692Z" fill="#024F79"/>
<path opacity="0.1" d="M299.797 308.155C300.408 308.252 301.191 308.349 302.093 308.431C308.712 309.034 321.705 309.176 321.705 309.176C321.705 309.176 331.396 289.955 339.686 290.544C339.686 290.544 332.037 281.868 328.944 282.904C328.422 283.076 328.094 282.696 327.937 281.95C327.11 278.224 329.972 265.554 329.972 265.554L333.901 248.412L311.165 253.987C309.1 254.404 302.689 257.714 302.689 257.714C302.689 257.714 302.488 266.597 300.833 268.669C299.178 270.741 297.322 280.654 297.523 283.128C297.724 285.602 295.249 297.184 297.732 300.27C300.214 303.355 294.668 307.327 299.797 308.155Z" fill="black"/>
<path d="M384.741 443.499C384.741 443.499 385.985 450.319 384.539 454.679C383.093 459.039 383.294 468.526 384.331 471.82C385.367 475.114 388.878 479.668 379.373 481.733C369.869 483.797 363.458 481.941 363.041 480.287C362.623 478.632 360.566 472.022 362.213 468.303C363.861 464.584 364.449 454.887 361.386 449.29C358.322 443.693 360.357 435.033 363.249 434.004C366.142 432.976 371.106 430.695 371.106 430.695C371.106 430.695 365.732 440.384 370.689 442.478C375.646 444.573 384.741 443.499 384.741 443.499Z" fill="#65617D"/>
<path opacity="0.1" d="M339.484 197.464C339.471 203.798 341.897 209.894 346.261 214.487C346.283 214.449 346.303 214.409 346.32 214.368C347.066 212.795 347.759 211.163 347.699 209.441C347.632 207.362 346.432 205.484 346.044 203.427C345.56 200.833 346.41 198.21 347.245 195.691C347.856 193.857 349.041 191.629 350.972 191.852C351.344 191.948 351.728 191.993 352.112 191.987C353.134 191.83 353.342 190.496 353.462 189.467C353.771 187.051 354.844 184.797 356.524 183.033C358.204 181.269 360.404 180.087 362.802 179.659C363.346 179.539 363.912 179.578 364.435 179.771C365.18 180.092 365.545 180.867 366.194 181.314C368.289 182.767 370.957 179.987 373.507 180.203C375.676 180.382 376.995 182.596 377.89 184.578C378.784 186.561 379.895 188.819 382.02 189.281C382.186 189.33 382.361 189.346 382.534 189.327C382.707 189.308 382.874 189.254 383.026 189.169C383.682 188.685 383.227 187.679 382.892 186.933C382.02 184.966 382.601 183.408 383.637 182.007C380.43 177.992 376.054 175.072 371.114 173.652C366.174 172.232 360.915 172.382 356.065 174.081C351.214 175.781 347.011 178.945 344.038 183.137C341.065 187.329 339.469 192.341 339.469 197.479L339.484 197.464Z" fill="black"/>
<path d="M382.877 186.091C383.212 186.837 383.675 187.865 383.004 188.327C382.854 188.414 382.688 188.468 382.516 188.488C382.344 188.507 382.17 188.49 382.005 188.439C379.88 187.984 378.762 185.719 377.867 183.736C376.973 181.754 375.631 179.54 373.492 179.361C370.942 179.145 368.274 181.925 366.171 180.472C365.53 180.025 365.135 179.25 364.42 178.929C363.897 178.738 363.33 178.702 362.787 178.825C360.388 179.251 358.188 180.431 356.507 182.194C354.826 183.956 353.751 186.21 353.439 188.625C353.335 189.646 353.119 190.988 352.097 191.144C351.713 191.151 351.329 191.106 350.957 191.01C349.034 190.787 347.856 193.008 347.23 194.841C346.395 197.353 345.545 199.991 346.029 202.585C346.417 204.642 347.617 206.52 347.684 208.606C347.737 210.321 347.013 211.96 346.305 213.525C345.597 215.091 344.427 216.924 342.727 216.7C341.326 216.521 340.558 215.038 339.887 213.794C339.216 212.549 338.008 211.222 336.652 211.61C336.04 211.789 335.414 212.303 334.863 211.99C334.718 211.884 334.598 211.749 334.508 211.594C334.418 211.438 334.361 211.266 334.341 211.088C333.677 208.204 334.632 204.955 333.223 202.346C332.142 200.341 329.95 199.253 328.169 197.83C326.651 196.617 325.393 195.112 324.47 193.404C323.546 191.696 322.976 189.819 322.793 187.886C322.61 185.953 322.818 184.002 323.405 182.151C323.992 180.3 324.945 178.586 326.208 177.111C328.116 174.875 330.86 172.907 331.016 169.978C331.128 167.742 329.622 165.693 329.607 163.457C329.592 161.221 330.986 159.343 332.589 157.86C334.889 155.755 337.666 154.24 340.681 153.446C343.696 152.651 346.859 152.601 349.898 153.299C351.501 153.686 353.111 154.282 354.744 154.081C356.645 153.843 358.225 152.591 359.962 151.711C362.805 150.377 366.028 150.095 369.06 150.913C372.091 151.732 374.734 153.599 376.518 156.183C378.471 159.231 379.239 163.203 382.161 165.342C384.077 166.744 386.835 167.273 387.894 169.397C388.527 170.679 388.348 172.192 388.155 173.6C387.855 175.917 386.739 178.052 385.009 179.622C383.212 181.47 381.684 183.401 382.877 186.091Z" fill="#512E4E"/>
<g opacity="0.1">
<path d="M330.129 165.998C329.936 165.437 329.789 164.861 329.689 164.277C329.883 164.837 330.03 165.413 330.129 165.998Z" fill="black"/>
<path d="M382.459 184.288C382.355 183.909 382.218 183.54 382.049 183.185C380.856 180.487 382.385 178.564 384.166 176.76C385.893 175.188 387.005 173.054 387.305 170.738C387.405 170.107 387.465 169.47 387.484 168.83C387.63 169.018 387.76 169.217 387.871 169.427C388.505 170.709 388.326 172.221 388.132 173.63C387.832 175.947 386.717 178.082 384.986 179.652C383.63 181.046 382.422 182.492 382.459 184.288Z" fill="black"/>
<path d="M335.839 208.733C337.196 208.338 338.403 209.68 339.074 210.917C339.745 212.154 340.513 213.645 341.914 213.823C343.614 214.04 344.784 212.206 345.493 210.649C346.201 209.091 346.931 207.444 346.872 205.73C346.863 205.523 346.843 205.316 346.812 205.111C347.297 206.225 347.596 207.411 347.699 208.621C347.751 210.336 347.028 211.975 346.32 213.54C345.612 215.105 344.442 216.939 342.742 216.715C341.34 216.536 340.573 215.053 339.902 213.809C339.231 212.564 338.023 211.237 336.667 211.625C336.055 211.804 335.429 212.318 334.877 212.005C334.733 211.899 334.612 211.764 334.523 211.608C334.433 211.453 334.376 211.281 334.356 211.103C334.217 210.456 334.135 209.797 334.11 209.136C334.646 209.374 335.258 208.882 335.839 208.733Z" fill="black"/>
<path d="M327.356 194.953C329.137 196.376 331.336 197.464 332.417 199.469C332.853 200.341 333.107 201.291 333.163 202.264C332.067 200.326 329.92 199.246 328.168 197.844C325.418 195.628 323.564 192.491 322.95 189.013C323.881 191.34 325.399 193.387 327.356 194.953Z" fill="black"/>
<path d="M345.999 202.257C345.669 201.43 345.407 200.577 345.217 199.708C344.732 197.114 345.582 194.491 346.417 191.964C347.028 190.131 348.213 187.91 350.144 188.133C350.516 188.229 350.9 188.274 351.285 188.268C352.306 188.111 352.522 186.777 352.626 185.741C352.942 183.327 354.018 181.077 355.699 179.316C357.379 177.555 359.578 176.376 361.974 175.948C362.517 175.821 363.085 175.857 363.607 176.052C364.352 176.373 364.718 177.148 365.359 177.595C367.461 179.086 370.129 176.268 372.679 176.484C374.841 176.663 376.168 178.877 377.062 180.859C377.957 182.842 379.075 185.1 381.192 185.562C381.357 185.613 381.531 185.63 381.703 185.611C381.875 185.592 382.041 185.537 382.191 185.45C382.289 185.379 382.369 185.286 382.426 185.179C382.482 185.071 382.514 184.953 382.519 184.832C382.586 185.266 382.711 185.69 382.892 186.091C383.227 186.837 383.689 187.865 383.018 188.327C382.869 188.414 382.702 188.468 382.531 188.488C382.359 188.507 382.185 188.49 382.019 188.439C379.895 187.984 378.777 185.719 377.882 183.736C376.988 181.754 375.646 179.54 373.506 179.361C370.957 179.145 368.288 181.925 366.186 180.472C365.545 180.025 365.15 179.25 364.434 178.929C363.911 178.738 363.345 178.702 362.802 178.825C360.403 179.251 358.203 180.431 356.521 182.194C354.84 183.956 353.765 186.21 353.454 188.625C353.349 189.646 353.133 190.988 352.112 191.144C351.728 191.151 351.344 191.106 350.971 191.01C349.048 190.787 347.87 193.008 347.244 194.841C346.447 197.256 345.649 199.775 345.999 202.257Z" fill="black"/>
</g>
<path opacity="0.1" d="M302.123 308.431C308.742 309.034 321.735 309.176 321.735 309.176C321.735 309.176 331.426 289.955 339.715 290.544C339.715 290.544 332.067 281.868 328.974 282.904C328.452 283.076 328.124 282.696 327.967 281.95C319.872 284.425 304.441 290.469 302.928 301.082C302.495 303.974 302.234 306.388 302.123 308.431Z" fill="black"/>
<path d="M301.265 308.431C307.885 309.034 320.878 309.176 320.878 309.176C320.878 309.176 330.569 289.955 338.858 290.544C338.858 290.544 331.217 281.868 328.116 282.904C327.594 283.076 327.274 282.696 327.11 281.95C319.014 284.425 303.583 290.469 302.07 301.082C301.668 303.974 301.414 306.388 301.265 308.431Z" fill="#024F79"/>
<path opacity="0.1" d="M359.321 363.738C359.321 363.738 340.685 359.192 337.83 361.674C334.974 364.156 359.321 363.738 359.321 363.738Z" fill="black"/>
<path opacity="0.1" d="M412.643 381.514C412.643 381.514 404.793 386.06 403.966 389.779C403.138 393.498 412.643 381.514 412.643 381.514Z" fill="black"/>
<path opacity="0.1" d="M381.229 465.262C381.229 465.262 370.48 463.607 367.729 465.396C364.979 467.185 381.229 465.262 381.229 465.262Z" fill="black"/>
<path d="M273.848 609.505C273.848 609.505 315.503 607.269 325.656 601.307C335.809 595.345 350.181 595.345 350.256 595.345L516.118 559.168L585.072 542.772L597.372 541.155L556.745 494.678L555.508 494.142L495.618 468.243C495.618 468.243 468.782 469.734 463.482 487.218C463.119 488.45 462.869 489.712 462.737 490.989C462.18 496.44 463.691 501.9 466.971 506.29C469.088 509.189 471.689 513.288 472.509 516.91C472.972 518.952 472.867 520.838 471.764 522.276C469.528 524.496 467.059 526.468 464.399 528.157C449.796 537.845 412.881 553.81 348.392 529.357C348.392 529.357 320.811 502.154 299.938 513.706C279.066 525.258 273.848 609.505 273.848 609.505Z" fill="#E1DEE5"/>
<path opacity="0.1" d="M472.48 516.94C472.942 518.982 472.837 520.868 471.734 522.306C469.498 524.526 467.029 526.497 464.369 528.187L589.917 537.555L555.507 494.142L495.618 468.243C495.618 468.243 468.782 469.734 463.482 487.218C463.119 488.45 462.869 489.712 462.737 490.989C462.18 496.44 463.691 501.9 466.971 506.29C469.058 509.234 471.66 513.318 472.48 516.94Z" fill="black"/>
<path d="M595.135 346.045L492.264 348.281V471.395L589.917 537.585L613.399 515.971L608.554 444.423L613.399 377.72L595.135 346.045Z" fill="#65617D"/>
<path d="M653.653 325.893L533.547 288.919C531.377 288.251 529.101 287.998 526.838 288.174L239.915 309.116C215.373 310.796 191.752 319.126 171.587 333.211C153.018 346.306 134.628 366.407 126.115 396.837C119.977 419.297 120.425 443.048 127.404 465.262L152.712 547.244C152.712 547.244 133.704 369.119 323.42 360.176L653.653 325.893Z" fill="#D9D6DF"/>
<path opacity="0.1" d="M466.941 506.32C469.058 509.219 471.66 513.318 472.48 516.94C475.73 513.176 476.431 508.928 471.734 505.537C465.853 501.259 463.892 493.836 463.452 487.248C463.089 488.479 462.839 489.742 462.707 491.019C462.15 496.469 463.662 501.93 466.941 506.32Z" fill="white"/>
<path d="M165.758 526.375L179.921 574.447L211.976 605.749L252.23 613.947L314.847 602.768V380.299C314.847 380.299 304.038 373.219 302.92 373.219C301.802 373.219 271.611 378.063 271.611 378.063L203.254 427.081L200.421 429.115L169.858 474.578L165.758 526.375Z" fill="#65617D"/>
<path d="M314.847 371.012V602.797L308.809 603.878V371.012H314.847Z" fill="#65617D"/>
<path opacity="0.1" d="M595.135 346.045L492.264 348.281V471.395L589.917 537.585L613.399 515.971L608.554 444.423L613.399 377.72L595.135 346.045Z" fill="black"/>
<path opacity="0.1" d="M314.847 371.012V602.797L308.809 603.878V371.012H314.847Z" fill="black"/>
<path opacity="0.1" d="M201.912 442.56C246.639 405.817 296.36 400.414 314.847 399.743V380.299C314.847 380.299 304.038 373.219 302.92 373.219C301.802 373.219 271.611 378.063 271.611 378.063L203.254 427.081L201.912 442.56Z" fill="black"/>
<path d="M699.126 422.78C699.126 422.78 694.511 434.973 689.561 449.171C685.178 461.789 680.527 476.001 678.626 484.639C677.88 487.941 676.009 491.347 673.363 494.678C661.294 509.994 633.481 524.833 628.681 530.102C622.829 536.526 589.917 541.155 589.917 541.155V343.437L611.908 336.357H639.862L676.017 352.753L694.653 380.329L699.126 422.78Z" fill="#65617D"/>
<path d="M315.541 307.126C316.987 308.885 360.908 309.295 363.182 308.781L367.312 307.849C367.312 307.849 388.512 319.26 403.093 300.59C403.72 299.793 404.331 298.943 404.927 298.034C419.501 275.824 370.927 292.071 370.927 292.071C370.927 292.071 352.328 292.176 347.572 292.176H347.08C342.138 291.975 332.283 288.978 332.283 288.978C332.283 288.978 314.102 305.375 315.541 307.126Z" fill="#FBBEBE"/>
<path opacity="0.1" d="M379.649 300.434C379.649 300.434 398.248 300.538 403.004 300.59H403.116C403.742 299.793 404.353 298.943 404.95 298.034C419.523 275.824 370.95 292.071 370.95 292.071C370.95 292.071 352.351 292.176 347.595 292.176H347.103C346.633 292.787 346.171 293.428 345.716 294.106C330.889 316.122 379.649 300.434 379.649 300.434Z" fill="black"/>
<path d="M418.248 302.476C418.248 302.476 407.745 299.152 402.989 299.099C398.233 299.047 379.634 298.95 379.634 298.95C379.634 298.95 330.889 314.601 345.701 292.578C360.513 270.555 383.428 283.18 383.428 283.18L387.566 282.293C389.847 281.801 433.783 282.703 435.185 284.477C436.586 286.251 418.248 302.476 418.248 302.476Z" fill="#FBBEBE"/>
<path d="M440.03 290.022C440.03 290.022 439.732 304.354 429.795 305.174C408.923 306.88 414.23 298.816 414.23 298.816L416.034 282.763L425.867 273.864C425.867 273.864 430.183 275.846 430.742 275.511C431.301 275.176 440.03 290.022 440.03 290.022Z" fill="#024F79"/>
<path d="M298.969 308.155C299.581 308.252 300.363 308.349 301.265 308.431C307.885 309.034 320.878 309.176 320.878 309.176C320.878 309.176 330.569 289.955 338.858 290.544C338.858 290.544 331.217 281.868 328.116 282.904C327.594 283.076 327.274 282.696 327.11 281.95C326.29 278.224 329.145 265.554 329.145 265.554L333.073 248.412L310.322 254.017C308.258 254.434 301.854 257.743 301.854 257.743C301.854 257.743 301.645 266.627 299.991 268.699C298.336 270.771 296.479 280.683 296.681 283.158C296.882 285.632 294.407 297.214 296.889 300.299C299.372 303.385 293.803 307.327 298.969 308.155Z" fill="#024F79"/>
<path opacity="0.1" d="M322.324 263.109C322.324 263.109 303.315 265.174 302.488 269.929C301.66 274.684 322.324 263.109 322.324 263.109Z" fill="black"/>
<path opacity="0.1" d="M310.956 281.704C309.719 282.122 302.488 283.978 301.042 288.323C299.595 292.668 310.956 281.704 310.956 281.704Z" fill="black"/>
<path opacity="0.1" d="M302.123 309.198C308.742 309.802 321.735 309.943 321.735 309.943C321.735 309.943 331.426 290.722 339.715 291.311C339.715 291.311 332.067 282.636 328.974 283.672C328.452 283.843 328.124 283.463 327.967 282.718C319.872 285.192 304.441 291.237 302.928 301.85C302.495 304.741 302.234 307.156 302.123 309.198Z" fill="black"/>
<path opacity="0.1" d="M613.496 85.3356C622.401 85.3356 629.62 78.1182 629.62 69.215C629.62 60.3119 622.401 53.0944 613.496 53.0944C604.591 53.0944 597.372 60.3119 597.372 69.215C597.372 78.1182 604.591 85.3356 613.496 85.3356Z" fill="#024F79"/>
<path opacity="0.1" d="M685.059 121.393C692.062 121.393 697.739 115.717 697.739 108.715C697.739 101.714 692.062 96.038 685.059 96.038C678.056 96.038 672.379 101.714 672.379 108.715C672.379 115.717 678.056 121.393 685.059 121.393Z" fill="#024F79"/>
<path opacity="0.1" d="M720.527 52.0957C722.998 52.0957 725 50.0937 725 47.624C725 45.1543 722.998 43.1522 720.527 43.1522C718.057 43.1522 716.055 45.1543 716.055 47.624C716.055 50.0937 718.057 52.0957 720.527 52.0957Z" fill="#024F79"/>
<path d="M92.5474 513.892C92.5474 513.892 97.8625 520.845 90.0949 531.339C82.3273 541.833 75.9314 550.717 78.5032 557.245C78.5032 557.245 90.2291 537.749 99.7782 537.48C109.327 537.212 103.088 525.63 92.5474 513.892Z" fill="#024F79"/>
<path opacity="0.1" d="M92.5472 513.892C93.0118 514.562 93.3783 515.295 93.6356 516.068C102.946 527.009 107.911 537.219 98.9581 537.48C90.6165 537.719 80.6126 552.625 78.2197 556.388C78.295 556.68 78.3897 556.966 78.503 557.245C78.503 557.245 90.2289 537.749 99.7781 537.48C109.327 537.212 103.088 525.63 92.5472 513.892Z" fill="black"/>
<path d="M102.432 522.753C102.432 525.198 102.156 527.18 101.821 527.18C101.485 527.18 101.209 525.198 101.209 522.753C101.209 520.309 101.552 521.457 101.888 521.457C102.223 521.457 102.432 520.301 102.432 522.753Z" fill="#FFD037"/>
<path d="M105.824 525.675C103.677 526.845 101.806 527.553 101.642 527.255C101.478 526.957 103.088 525.764 105.242 524.594C107.397 523.424 106.539 524.274 106.733 524.594C106.927 524.915 107.978 524.505 105.824 525.675Z" fill="#FFD037"/>
<path d="M64.4513 513.892C64.4513 513.892 59.1363 520.845 66.9039 531.339C74.6714 541.833 81.0674 550.717 78.503 557.245C78.503 557.245 66.7697 537.749 57.228 537.48C47.6862 537.212 53.948 525.63 64.4513 513.892Z" fill="#024F79"/>
<path opacity="0.1" d="M64.4513 513.892C63.9868 514.562 63.6203 515.295 63.363 516.068C54.0524 527.009 49.0877 537.219 58.0405 537.48C66.3821 537.719 76.386 552.625 78.7863 556.388C78.7076 556.679 78.613 556.965 78.503 557.245C78.503 557.245 66.7697 537.749 57.228 537.48C47.6862 537.212 53.948 525.63 64.4513 513.892Z" fill="black"/>
<path d="M54.5667 522.753C54.5667 525.198 54.8425 527.18 55.1779 527.18C55.5134 527.18 55.7892 525.198 55.7892 522.753C55.7892 520.309 55.4463 521.457 55.1108 521.457C54.7754 521.457 54.5667 520.301 54.5667 522.753Z" fill="#FFD037"/>
<path d="M51.1749 525.675C53.3218 526.845 55.1929 527.553 55.3569 527.255C55.5209 526.957 53.9107 525.764 51.7564 524.594C49.602 523.424 50.4593 524.274 50.2655 524.594C50.0717 524.915 49.0206 524.505 51.1749 525.675Z" fill="#FFD037"/>
<path opacity="0.1" d="M79.0505 610.443C109.687 608.275 134.252 602.706 133.919 598.004C133.586 593.303 108.481 591.25 77.8448 593.419C47.2087 595.588 22.6432 601.157 22.9761 605.858C23.309 610.559 48.4144 612.612 79.0505 610.443Z" fill="#024F79"/>
<path d="M107.121 547.877L106.852 550.046L106.48 553.116L106.331 554.391L105.958 557.462L105.794 558.743L105.421 561.807L101.165 596.686C100.784 599.801 95.7005 602.224 89.558 602.224H67.4406C61.2981 602.224 56.2216 599.801 55.8414 596.686L51.5775 561.807L51.2048 558.743L51.0482 557.462L50.668 554.391L50.5189 553.116L50.1462 550.046L49.8779 547.877C49.6617 546.111 52.4198 544.628 55.8936 544.628H101.112C104.579 544.628 107.337 546.111 107.121 547.877Z" fill="#65617D"/>
<path d="M106.853 550.053L106.48 553.116H50.5116L50.1389 550.053H106.853Z" fill="#9D9CB5"/>
<path d="M106.323 554.398L105.95 557.469H51.0481L50.668 554.398H106.323Z" fill="#9D9CB5"/>
<path d="M105.787 558.743L105.414 561.807H51.5776L51.2048 558.743H105.787Z" fill="#9D9CB5"/>
<path opacity="0.1" d="M522.656 300.68L543.021 301.715L509.454 312.284L492.264 311.292L522.656 300.68Z" fill="black"/>
<path d="M522.648 299.793L543.014 300.836L509.439 311.404L492.249 310.406L522.648 299.793Z" fill="white"/>
<path d="M520.248 302.103C521.045 301.753 521.91 302.386 522.767 302.535C523.259 302.625 523.766 302.535 524.258 302.61C525.257 302.729 526.256 303.355 527.24 303.035L520.248 302.103Z" fill="#D3DAE1"/>
<path d="M519.204 302.729C520.002 302.379 520.867 303.012 521.724 303.161C522.216 303.251 522.723 303.161 523.215 303.236C524.214 303.355 525.213 303.981 526.159 303.653L519.204 302.729Z" fill="#D3DAE1"/>
<path d="M516.811 303.981C517.609 303.631 518.474 304.264 519.338 304.413C519.823 304.503 520.33 304.413 520.829 304.488C521.828 304.607 522.827 305.233 523.811 304.905L516.811 303.981Z" fill="#D3DAE1"/>
<path d="M568.307 296.692C568.307 296.692 565.757 308.557 577.096 309.958L577.796 308.647C577.796 308.647 568.993 300.381 568.307 296.692Z" fill="#024F79"/>
<path d="M581.404 308.557L578.765 309.116L578.505 309.168C578.505 309.168 571.468 303.459 571.557 290.715C572.497 292.594 573.624 294.374 574.919 296.029C577.707 299.718 580.875 304.644 581.404 308.557Z" fill="#024F79"/>
<path d="M582.292 309.779C582.084 309.913 581.849 309.999 581.604 310.029C581.359 310.06 581.11 310.036 580.875 309.958C574.106 308.378 576.402 286.325 576.402 286.325C576.775 286.504 577.185 289.306 578.743 292.928C581.464 299.293 584.468 308.177 582.292 309.779Z" fill="#024F79"/>
<path d="M597.32 296.692C597.32 296.692 597.759 308.557 586.421 309.958L585.72 308.647C585.72 308.647 596.574 300.381 597.32 296.692Z" fill="#024F79"/>
<path d="M594.055 290.715C594.144 303.459 585.005 309.168 585.005 309.168L584.737 309.116L582.105 308.557C582.627 304.644 585.832 299.718 588.583 296.029C590.162 294.022 592.002 292.235 594.055 290.715Z" fill="#024F79"/>
<path d="M584.699 308.624C584.294 309.115 583.785 309.51 583.208 309.779C583.029 309.858 582.841 309.918 582.649 309.958C580.987 310.353 580.413 309.146 580.502 307.111C580.659 303.474 582.94 297.177 584.975 292.466C585.954 290.149 587.4 288.058 589.224 286.325C589.224 286.325 589.12 303.534 584.699 308.624Z" fill="#024F79"/>
<path d="M582.806 278.589C582.806 278.589 575.247 305.42 581.755 309.437C588.262 313.454 584.476 280.967 582.806 278.589Z" fill="#024F79"/>
<path opacity="0.1" d="M568.307 296.692C568.307 296.692 565.757 308.557 577.096 309.958L577.796 308.647C577.796 308.647 568.993 300.381 568.307 296.692Z" fill="black"/>
<path opacity="0.1" d="M581.404 308.557L578.765 309.116L578.505 309.168C578.505 309.168 571.468 303.459 571.557 290.715C572.497 292.594 573.624 294.374 574.919 296.029C577.707 299.718 580.875 304.644 581.404 308.557Z" fill="black"/>
<path opacity="0.1" d="M582.292 309.779C582.084 309.913 581.849 309.999 581.604 310.029C581.359 310.06 581.11 310.036 580.875 309.958C574.106 308.378 576.402 286.325 576.402 286.325C576.775 286.504 577.185 289.306 578.743 292.928C581.464 299.293 584.468 308.177 582.292 309.779Z" fill="black"/>
<path opacity="0.1" d="M597.32 296.692C597.32 296.692 597.759 308.557 586.421 309.958L585.72 308.647C585.72 308.647 596.574 300.381 597.32 296.692Z" fill="black"/>
<path opacity="0.1" d="M594.055 290.715C594.144 303.459 585.005 309.168 585.005 309.168L584.737 309.116L582.105 308.557C582.627 304.644 585.832 299.718 588.583 296.029C590.162 294.022 592.002 292.235 594.055 290.715Z" fill="black"/>
<path opacity="0.1" d="M584.699 308.624C584.294 309.115 583.785 309.51 583.208 309.779C583.029 309.858 582.841 309.918 582.649 309.958C580.987 310.353 580.413 309.146 580.502 307.111C580.659 303.474 582.94 297.177 584.975 292.466C585.954 290.149 587.4 288.058 589.224 286.325C589.224 286.325 589.12 303.534 584.699 308.624Z" fill="black"/>
<path opacity="0.1" d="M582.806 278.589C582.806 278.589 575.247 305.42 581.755 309.437C588.262 313.454 584.476 280.967 582.806 278.589Z" fill="black"/>
<path d="M568.307 296.692C568.307 296.692 566.816 308.557 578.147 309.958L578.847 308.647C578.847 308.647 568.993 300.381 568.307 296.692Z" fill="#024F79"/>
<path d="M582.456 308.557L579.817 309.116L579.556 309.168C579.556 309.168 571.468 303.459 571.557 290.715C571.557 290.715 573.629 292.951 575.97 296.029C578.758 299.718 581.926 304.644 582.456 308.557Z" fill="#024F79"/>
<path opacity="0.1" d="M582.456 308.557L579.817 309.116C577.32 306.918 576.328 301.194 575.97 296.029C578.758 299.718 581.926 304.644 582.456 308.557Z" fill="black"/>
<path d="M583.35 309.779C583.141 309.913 582.904 309.998 582.658 310.029C582.412 310.06 582.162 310.036 581.926 309.958C575.157 308.378 576.395 286.325 576.395 286.325C576.768 286.504 578.236 289.306 579.787 292.928C582.522 299.293 585.519 308.177 583.35 309.779Z" fill="#024F79"/>
<path d="M597.32 296.692C597.32 296.692 598.811 308.557 587.48 309.958L586.779 308.647C586.779 308.647 596.574 300.381 597.32 296.692Z" fill="#024F79"/>
<path d="M594.055 290.715C594.144 303.459 586.056 309.168 586.056 309.168L585.795 309.116L583.156 308.557C583.678 304.644 586.883 299.718 589.642 296.029C591.982 292.936 594.055 290.715 594.055 290.715Z" fill="#024F79"/>
<path opacity="0.1" d="M589.642 296.029C589.299 300.843 588.419 306.142 586.28 308.624C586.13 308.799 585.968 308.963 585.795 309.116L583.156 308.557C583.678 304.644 586.883 299.718 589.642 296.029Z" fill="black"/>
<path d="M585.75 308.624C585.348 309.118 584.838 309.513 584.26 309.779C584.082 309.857 583.897 309.917 583.708 309.958C582.038 310.353 581.472 309.146 581.554 307.111C581.718 303.474 583.999 297.177 586.026 292.466C587.517 289.068 588.866 286.504 589.224 286.325C589.224 286.325 590.178 303.534 585.75 308.624Z" fill="#024F79"/>
<path opacity="0.1" d="M583.35 309.779C582.966 309.776 582.591 309.657 582.277 309.437C579.094 307.454 579.026 300.009 579.787 292.928C582.523 299.293 585.519 308.177 583.35 309.779Z" fill="black"/>
<path opacity="0.1" d="M585.75 308.624C585.385 309.414 584.893 309.832 584.259 309.779C583.937 309.732 583.63 309.615 583.357 309.437C582.531 308.866 581.901 308.054 581.553 307.111C581.717 303.474 583.999 297.177 586.026 292.466C586.757 299.003 587.003 305.941 585.75 308.624Z" fill="black"/>
<path d="M582.806 278.589C582.806 278.589 576.306 305.42 582.806 309.437C589.306 313.454 584.476 280.967 582.806 278.589Z" fill="#024F79"/>
<path d="M593.003 310.756L592.549 313.126L590.894 321.823H575.157L573.503 313.126L573.048 310.756H593.003Z" fill="#65617D"/>
<path opacity="0.1" d="M593.003 310.756L592.549 313.126H573.503L573.048 310.756H593.003Z" fill="black"/>
<path d="M596.336 308.117H569.269V312.597H596.336V308.117Z" fill="#65617D"/>
<path d="M642.099 346.015C642.099 346.015 695.592 379.553 683.889 433.512C682.934 437.917 682.107 442.337 681.563 446.801C679.423 464.285 666.587 514.451 589.917 537.555V542.772L622.441 533.702L644.522 521.531L661.376 506.409L681.98 481.285L691.544 460.79L695.048 433.796L697.038 402.97L692.111 376.572L680.489 359.378L666.326 348.363L642.099 346.015Z" fill="#D9D6DF"/>
<path d="M149.105 489.968C144.05 516.798 147.971 544.71 161.166 568.641C199.638 638.415 281.399 617.882 305.522 609.967C311.262 608.081 317.076 606.449 322.965 605.115L588.673 544.911C680.117 529.014 698.999 454.977 698.999 454.977C717.106 397.873 704.694 364.603 688.309 345.747C681.82 338.366 673.734 332.561 664.666 328.772C655.597 324.983 645.784 323.31 635.971 323.88L604.454 325.55L324.292 356.107C193.324 357.508 158.341 440.854 149.105 489.968ZM175.054 493.329C183.887 451.101 218.535 389.853 329.972 386.075C335.086 385.896 340.193 385.449 345.269 384.77L595.829 351.307L624.842 349.816C646.639 348.721 667.675 358.864 679.759 377.027C691.298 394.385 697.538 421.744 683.263 464.278C683.263 464.278 665.797 528.909 581.233 542.794L335.809 595.337C330.226 596.53 324.71 597.99 319.26 599.675C297.001 606.546 222.986 623.971 187.033 565.451C173.816 543.934 169.88 518.043 175.054 493.329Z" fill="#E1DEE5"/>
<path d="M305 387.923L606.5 350.5L597.797 536.13L305 602V387.923Z" fill="#65617D"/>
<path d="M216 423L225 416L238 408L259.5 398L280.5 392L304 388V457H199L197.5 444L204 435L216 423Z" fill="#65617D"/>
<path d="M257.259 351.567C257.367 351.703 257.503 351.812 257.658 351.887C257.813 351.962 257.983 352.001 258.155 352H320.848C321.019 352 321.189 351.961 321.343 351.886C321.498 351.812 321.634 351.703 321.742 351.569C321.85 351.434 321.927 351.277 321.968 351.109C322.008 350.94 322.011 350.765 321.975 350.595L321.002 345.925C320.962 345.734 320.875 345.557 320.75 345.409C320.624 345.261 320.464 345.147 320.284 345.078C320.154 345.026 320.015 345 319.875 345H259.125C258.985 345 258.846 345.026 258.715 345.078C258.535 345.147 258.375 345.261 258.25 345.409C258.124 345.557 258.037 345.734 257.997 345.925L257.024 350.595C256.989 350.765 256.992 350.94 257.033 351.108C257.074 351.276 257.151 351.433 257.259 351.567Z" fill="#2F2E41"/>
<path d="M233 247.46V319.536C233.001 320.454 233.37 321.335 234.027 321.985C234.683 322.634 235.574 322.999 236.503 323H344.497C345.426 322.999 346.317 322.634 346.973 321.985C347.63 321.335 347.999 320.454 348 319.536V247.46C347.998 246.543 347.628 245.663 346.971 245.015C346.315 244.366 345.425 244.001 344.497 244H236.503C235.575 244.001 234.685 244.366 234.029 245.015C233.372 245.663 233.002 246.543 233 247.46Z" fill="#3F3D56"/>
<path d="M276 309.371V350H305V309.371C305 309.079 304.905 308.794 304.729 308.559C304.552 308.323 304.304 308.15 304.019 308.063C303.885 308.02 303.745 307.999 303.603 308H277.401C277.03 307.999 276.674 308.143 276.411 308.4C276.149 308.657 276.001 309.005 276 309.369V309.371ZM287.317 323.331C287.325 322.53 287.655 321.765 288.234 321.201C288.814 320.637 289.597 320.321 290.413 320.321C291.229 320.321 292.012 320.637 292.592 321.201C293.172 321.765 293.501 322.53 293.509 323.331V328.045C293.505 328.848 293.177 329.617 292.597 330.184C292.017 330.75 291.232 331.068 290.413 331.068C289.595 331.068 288.81 330.75 288.23 330.184C287.65 329.617 287.322 328.848 287.317 328.045V323.331Z" fill="#2F2E41"/>
<path d="M168.918 153.333H102.742C102.192 153.333 101.664 153.113 101.274 152.724C100.885 152.335 100.666 151.807 100.665 151.256V101.008C100.666 100.458 100.885 99.9296 101.274 99.5401C101.664 99.1507 102.192 98.9316 102.742 98.931H183.97C184.521 98.9316 185.049 99.1507 185.438 99.5401C185.827 99.9296 186.046 100.458 186.047 101.008V136.204C186.042 140.746 184.236 145.099 181.024 148.311C177.813 151.522 173.46 153.328 168.918 153.333Z" fill="white"/>
<path d="M168.918 153.521H102.742C102.142 153.521 101.566 153.282 101.141 152.857C100.716 152.432 100.478 151.857 100.477 151.256V101.008C100.477 100.408 100.716 99.8318 101.141 99.4071C101.566 98.9824 102.142 98.7435 102.742 98.7427H183.97C184.57 98.7434 185.146 98.9824 185.571 99.4071C185.996 99.8318 186.234 100.408 186.235 101.008V136.204C186.23 140.795 184.404 145.197 181.157 148.444C177.911 151.69 173.509 153.516 168.918 153.521ZM102.742 99.4957C102.341 99.4962 101.957 99.6557 101.673 99.9393C101.39 100.223 101.23 100.607 101.23 101.008V151.256C101.23 151.657 101.39 152.041 101.673 152.325C101.957 152.608 102.341 152.768 102.742 152.768H168.918C173.31 152.763 177.52 151.017 180.625 147.911C183.73 144.806 185.477 140.596 185.482 136.204V101.008C185.482 100.607 185.322 100.223 185.039 99.9393C184.755 99.6557 184.371 99.4962 183.97 99.4957H102.742Z" fill="#CCCCCC"/>
<path d="M167.913 115.901H118.799C118.348 115.901 117.916 115.721 117.597 115.403C117.278 115.084 117.099 114.651 117.099 114.2C117.099 113.75 117.278 113.317 117.597 112.998C117.916 112.679 118.348 112.5 118.799 112.5H167.913C168.364 112.501 168.796 112.68 169.114 112.999C169.432 113.318 169.611 113.75 169.611 114.2C169.611 114.651 169.432 115.083 169.114 115.402C168.796 115.72 168.364 115.9 167.913 115.901Z" fill="#CCCCCC"/>
<path d="M167.913 127.612H118.799C118.348 127.612 117.916 127.433 117.597 127.114C117.278 126.796 117.099 126.363 117.099 125.912C117.099 125.461 117.278 125.029 117.597 124.71C117.916 124.391 118.348 124.212 118.799 124.212H167.913C168.364 124.212 168.797 124.391 169.115 124.71C169.434 125.029 169.613 125.461 169.613 125.912C169.613 126.363 169.434 126.796 169.115 127.114C168.797 127.433 168.364 127.612 167.913 127.612Z" fill="#CCCCCC"/>
<path d="M167.913 139.659H118.799C118.348 139.659 117.916 139.48 117.597 139.161C117.278 138.842 117.099 138.41 117.099 137.959C117.099 137.508 117.278 137.076 117.597 136.757C117.916 136.438 118.348 136.259 118.799 136.259H167.913C168.364 136.259 168.797 136.438 169.115 136.757C169.434 137.076 169.613 137.508 169.613 137.959C169.613 138.41 169.434 138.842 169.115 139.161C168.797 139.48 168.364 139.659 167.913 139.659Z" fill="#CCCCCC"/>
<path d="M183.36 111.305C188.967 111.305 193.513 106.76 193.513 101.152C193.513 95.5454 188.967 91 183.36 91C177.753 91 173.208 95.5454 173.208 101.152C173.208 106.76 177.753 111.305 183.36 111.305Z" fill="#024F79"/>
<path d="M144.493 196.976H78.317C73.7758 196.97 69.422 195.164 66.2108 191.953C62.9996 188.742 61.1934 184.388 61.1882 179.847V144.651C61.1889 144.1 61.4079 143.572 61.7974 143.182C62.1868 142.793 62.7148 142.574 63.2655 142.573H144.493C145.044 142.574 145.572 142.793 145.961 143.182C146.35 143.572 146.57 144.1 146.57 144.651V194.898C146.57 195.449 146.35 195.977 145.961 196.366C145.572 196.756 145.044 196.975 144.493 196.976Z" fill="white"/>
<path d="M144.493 197.164H78.317C73.7259 197.159 69.3243 195.332 66.0778 192.086C62.8314 188.84 61.0052 184.438 61 179.847V144.651C61.0007 144.05 61.2396 143.474 61.6643 143.049C62.089 142.625 62.6649 142.386 63.2655 142.385H144.493C145.094 142.386 145.669 142.625 146.094 143.049C146.519 143.474 146.758 144.05 146.758 144.651V194.898C146.758 195.499 146.519 196.075 146.094 196.499C145.669 196.924 145.094 197.163 144.493 197.164ZM63.2655 143.138C62.8645 143.138 62.4801 143.298 62.1965 143.581C61.9129 143.865 61.7534 144.249 61.7529 144.651V179.847C61.7579 184.238 63.5046 188.449 66.6099 191.554C69.7152 194.659 73.9255 196.406 78.317 196.411H144.493C144.894 196.41 145.278 196.251 145.562 195.967C145.846 195.684 146.005 195.299 146.006 194.898V144.651C146.005 144.249 145.845 143.865 145.562 143.581C145.278 143.298 144.894 143.138 144.493 143.138H63.2655Z" fill="#CCCCCC"/>
<path d="M128.436 159.543H79.3219C78.871 159.543 78.4386 159.364 78.1198 159.045C77.8009 158.726 77.6218 158.294 77.6218 157.843C77.6218 157.392 77.8009 156.959 78.1198 156.641C78.4386 156.322 78.871 156.143 79.3219 156.143H128.436C128.887 156.143 129.32 156.322 129.638 156.641C129.957 156.959 130.136 157.392 130.136 157.843C130.136 158.294 129.957 158.726 129.638 159.045C129.32 159.364 128.887 159.543 128.436 159.543Z" fill="#CCCCCC"/>
<path d="M128.436 171.255H79.3219C78.871 171.255 78.4386 171.076 78.1198 170.757C77.8009 170.438 77.6218 170.006 77.6218 169.555C77.6218 169.104 77.8009 168.671 78.1198 168.352C78.4386 168.034 78.871 167.854 79.3219 167.854H128.436C128.887 167.854 129.32 168.034 129.638 168.352C129.957 168.671 130.136 169.104 130.136 169.555C130.136 170.006 129.957 170.438 129.638 170.757C129.32 171.076 128.887 171.255 128.436 171.255Z" fill="#CCCCCC"/>
<path d="M128.436 183.301H79.3219C78.871 183.301 78.4386 183.122 78.1198 182.803C77.8009 182.485 77.6218 182.052 77.6218 181.601C77.6218 181.15 77.8009 180.718 78.1198 180.399C78.4386 180.08 78.871 179.901 79.3219 179.901H128.436C128.887 179.901 129.32 180.08 129.638 180.399C129.957 180.718 130.136 181.15 130.136 181.601C130.136 182.052 129.957 182.485 129.638 182.803C129.32 183.122 128.887 183.301 128.436 183.301Z" fill="#CCCCCC"/>
<path d="M144.585 155.351C150.192 155.351 154.737 150.805 154.737 145.198C154.737 139.591 150.192 135.046 144.585 135.046C138.978 135.046 134.432 139.591 134.432 145.198C134.432 150.805 138.978 155.351 144.585 155.351Z" fill="#024F79"/>
<path d="M143.2 150.482C143.025 150.482 142.852 150.441 142.695 150.363C142.538 150.284 142.402 150.17 142.297 150.03L139.527 146.337C139.438 146.218 139.373 146.083 139.336 145.94C139.3 145.796 139.291 145.647 139.312 145.5C139.333 145.353 139.383 145.212 139.459 145.084C139.534 144.956 139.634 144.845 139.753 144.756C139.871 144.667 140.006 144.602 140.15 144.565C140.294 144.529 140.443 144.521 140.59 144.542C140.737 144.563 140.878 144.612 141.006 144.688C141.133 144.763 141.245 144.863 141.334 144.982L143.146 147.398L147.8 140.417C147.966 140.168 148.224 139.995 148.518 139.936C148.812 139.877 149.117 139.937 149.366 140.104C149.615 140.27 149.788 140.528 149.847 140.822C149.906 141.115 149.845 141.421 149.679 141.67L144.14 149.979C144.04 150.129 143.905 150.253 143.747 150.341C143.589 150.428 143.412 150.476 143.231 150.482C143.221 150.482 143.21 150.482 143.2 150.482Z" fill="white"/>
<path d="M226.946 243.812H134.351C129.81 243.807 125.456 242 122.245 238.789C119.034 235.578 117.228 231.224 117.222 226.683V174.915C117.223 174.205 117.506 173.524 118.008 173.022C118.51 172.52 119.19 172.238 119.9 172.237H226.946C227.656 172.238 228.337 172.52 228.839 173.022C229.341 173.524 229.623 174.205 229.624 174.915V241.134C229.623 241.844 229.341 242.524 228.839 243.026C228.337 243.528 227.656 243.811 226.946 243.812Z" fill="white"/>
<path d="M226.946 244H134.351C129.76 243.995 125.358 242.169 122.112 238.922C118.866 235.676 117.039 231.274 117.034 226.683V174.915C117.035 174.155 117.337 173.427 117.875 172.889C118.412 172.352 119.14 172.05 119.9 172.049H226.946C227.706 172.05 228.434 172.352 228.972 172.889C229.509 173.427 229.811 174.155 229.812 174.915V241.134C229.811 241.894 229.509 242.622 228.972 243.16C228.434 243.697 227.706 243.999 226.946 244ZM119.9 172.802C119.34 172.803 118.803 173.025 118.407 173.422C118.011 173.818 117.788 174.355 117.787 174.915V226.683C117.792 231.075 119.539 235.285 122.644 238.39C125.749 241.495 129.96 243.242 134.351 243.247H226.946C227.506 243.246 228.043 243.024 228.439 242.627C228.836 242.231 229.058 241.694 229.059 241.134V174.915C229.058 174.355 228.836 173.818 228.439 173.422C228.043 173.025 227.506 172.803 226.946 172.802H119.9Z" fill="#CCCCCC"/>
<path d="M205.786 194.541H141.061C140.766 194.541 140.474 194.484 140.202 194.371C139.93 194.259 139.683 194.094 139.474 193.886C139.266 193.678 139.101 193.43 138.988 193.158C138.875 192.886 138.817 192.595 138.817 192.3C138.817 192.006 138.875 191.714 138.988 191.442C139.101 191.17 139.266 190.923 139.474 190.715C139.683 190.507 139.93 190.342 140.202 190.23C140.474 190.117 140.766 190.059 141.061 190.06H205.786C206.081 190.059 206.372 190.117 206.644 190.23C206.917 190.342 207.164 190.507 207.372 190.715C207.581 190.923 207.746 191.17 207.859 191.442C207.971 191.714 208.029 192.006 208.029 192.3C208.029 192.595 207.971 192.886 207.859 193.158C207.746 193.43 207.581 193.678 207.372 193.886C207.164 194.094 206.917 194.259 206.644 194.371C206.372 194.484 206.081 194.541 205.786 194.541Z" fill="#CCCCCC"/>
<path d="M205.786 209.975H141.061C140.766 209.976 140.474 209.918 140.202 209.806C139.93 209.693 139.683 209.528 139.474 209.32C139.266 209.112 139.101 208.865 138.988 208.593C138.875 208.321 138.817 208.029 138.817 207.735C138.817 207.44 138.875 207.149 138.988 206.877C139.101 206.605 139.266 206.358 139.474 206.15C139.683 205.941 139.93 205.776 140.202 205.664C140.474 205.552 140.766 205.494 141.061 205.494H205.786C206.38 205.494 206.95 205.73 207.37 206.151C207.791 206.571 208.027 207.141 208.027 207.735C208.027 208.329 207.791 208.899 207.37 209.319C206.95 209.739 206.38 209.975 205.786 209.975Z" fill="#CCCCCC"/>
<path d="M205.786 225.851H141.06C140.466 225.851 139.896 225.615 139.476 225.195C139.056 224.775 138.82 224.205 138.82 223.611C138.82 223.016 139.056 222.446 139.476 222.026C139.896 221.606 140.466 221.37 141.06 221.37H205.786C206.08 221.37 206.372 221.427 206.644 221.54C206.916 221.652 207.164 221.817 207.372 222.025C207.58 222.233 207.746 222.48 207.858 222.752C207.971 223.025 208.029 223.316 208.029 223.611C208.029 223.905 207.971 224.197 207.858 224.469C207.746 224.741 207.58 224.988 207.372 225.196C207.164 225.404 206.916 225.569 206.644 225.681C206.372 225.794 206.08 225.851 205.786 225.851Z" fill="#CCCCCC"/>
<path d="M227.282 189.142C234.38 189.142 240.134 183.388 240.134 176.29C240.134 169.192 234.38 163.438 227.282 163.438C220.185 163.438 214.431 169.192 214.431 176.29C214.431 183.388 220.185 189.142 227.282 189.142Z" fill="#024F79"/>
<path d="M225.529 182.979C225.307 182.979 225.089 182.927 224.89 182.828C224.692 182.728 224.519 182.584 224.386 182.407L220.88 177.732C220.767 177.582 220.685 177.411 220.638 177.229C220.592 177.047 220.582 176.858 220.608 176.672C220.635 176.486 220.698 176.307 220.793 176.146C220.889 175.984 221.015 175.843 221.166 175.73C221.316 175.618 221.487 175.536 221.669 175.489C221.85 175.443 222.04 175.432 222.226 175.459C222.411 175.485 222.59 175.548 222.752 175.644C222.913 175.74 223.054 175.866 223.167 176.016L225.461 179.075L231.352 170.238C231.563 169.923 231.89 169.704 232.261 169.63C232.633 169.556 233.019 169.632 233.334 169.843C233.649 170.053 233.868 170.379 233.942 170.751C234.017 171.122 233.941 171.508 233.731 171.824L226.719 182.342C226.592 182.532 226.422 182.689 226.221 182.8C226.021 182.911 225.798 182.972 225.569 182.978C225.556 182.978 225.543 182.979 225.529 182.979Z" fill="white"/>
</svg>
